<svg width="220" height="140" viewBox="0 0 220 140" fill="none" xmlns="http://www.w3.org/2000/svg">
<path d="M209.863 60.7878H204.527H183.111H142.338V80.7061H181.769C181.464 82.2963 181.11 83.8455 180.707 85.3537C179.053 91.4953 176.984 97.0005 174.501 101.869C172.019 106.738 169.316 110.971 166.392 114.567C163.468 118.164 160.71 121.151 158.118 123.531C155.525 125.91 153.318 127.736 151.498 129.008C149.677 130.225 148.629 130.889 148.353 131H155.635C157.787 130.059 160.6 128.759 164.075 127.099C167.606 125.384 171.385 123.254 175.412 120.709C179.439 118.108 183.493 115.038 187.575 111.497C191.713 107.956 195.436 103.917 198.746 99.3796C202.056 94.7873 204.759 89.6417 206.856 83.9429C208.952 78.1887 210 71.8259 210 64.8544C210 63.5306 209.954 62.1751 209.863 60.7878Z" fill="white"/>
<path d="M94.7331 54.7293C95.1193 59.0449 95.3124 63.3882 95.3124 67.7592V131H121.543V67.7592C121.543 63.3882 121.736 59.0449 122.122 54.7293C122.564 50.3583 123.253 46.2086 124.191 42.2803C125.129 38.2966 126.315 34.6172 127.749 31.2422C129.239 27.8118 131.032 24.8517 133.128 22.3619C135.224 19.8168 137.651 17.8249 140.41 16.3864C143.168 14.9478 146.312 14.2286 149.843 14.2286C154.256 14.2286 158.476 15.3905 162.503 17.7143C166.53 20.0381 170.061 23.3855 173.095 27.7565C175.722 31.427 177.891 35.798 179.6 40.8694H205.378C205.352 40.8089 205.326 40.7483 205.301 40.6878C205.268 40.61 205.234 40.5322 205.201 40.4544C203.491 36.3048 201.201 32.3488 198.333 28.5864C195.519 24.7687 191.961 21.4213 187.658 18.5442C183.411 15.6118 178.363 13.288 172.516 11.5728C166.723 9.8576 160.021 9 152.408 9C146.726 9 141.568 9.49796 136.934 10.4939C132.356 11.4345 128.246 12.7624 124.605 14.4776C120.964 16.1374 117.737 18.1016 114.923 20.3701C112.11 22.6385 109.683 25.073 107.642 27.6735C105.601 25.073 103.256 22.6385 100.608 20.3701C97.9603 18.1016 94.9262 16.1374 91.506 14.4776C88.0858 12.7624 84.2518 11.4345 80.0041 10.4939C75.8116 9.49796 71.1226 9 65.9371 9C58.1037 9 51.2909 10.0789 45.4986 12.2367C39.7062 14.3946 34.7414 17.2163 30.6041 20.702C26.4667 24.1878 23.0465 28.1438 20.3434 32.5701C18.7074 35.3048 17.282 38.0713 16.0672 40.8694H40.5441C41.8406 36.8924 43.4369 33.2683 45.3331 29.9973C48.0913 25.1837 51.4012 21.366 55.2627 18.5442C59.1794 15.6671 63.5926 14.2286 68.5023 14.2286C71.9225 14.2286 74.9566 14.9478 77.6045 16.3864C80.3075 17.8249 82.652 19.8168 84.638 22.3619C86.6239 24.8517 88.2789 27.8118 89.6028 31.2422C90.9819 34.6172 92.0852 38.2966 92.9127 42.2803C93.7953 46.2086 94.4021 50.3583 94.7331 54.7293Z" fill="#3B82F6"/>
<path d="M38.0039 80.7061C38.3364 82.6197 38.7383 84.4732 39.2098 86.2667C40.8647 92.2975 42.9334 97.6921 45.4158 102.45C47.8982 107.209 50.6013 111.358 53.525 114.899C56.4488 118.44 59.1794 121.373 61.717 123.697C64.3097 126.02 66.5163 127.791 68.3368 129.008C70.2124 130.225 71.2881 130.889 71.5639 131H39.8717C38.8236 130.502 37.3617 129.395 35.4861 127.68C33.6657 125.965 31.6246 123.752 29.3628 121.041C27.1563 118.33 24.8945 115.176 22.5776 111.58C20.3158 107.928 18.2471 103.972 16.3715 99.7116C14.4959 95.3959 12.9513 90.8036 11.7377 85.9347C10.5792 81.0104 10 75.9202 10 70.664C10 67.8096 10.2182 64.5175 10.6546 60.7878H12.2388H36.952H74.4279V80.7061H38.0039Z" fill="white"/>
</svg>